<svg width="240" height="44" viewBox="0 0 240 44" fill="none" xmlns="http://www.w3.org/2000/svg">
<g filter="url(#filter0_d)">
<path fill="#006600" stroke="#006600" stroke-miterlimit="10" d="M14.834,13.039c0.067-0.214,0.155-0.438,0.263-0.67
	c0.202-0.503,0.371-0.931,0.505-1.285c2.285-0.996,4.422-1.494,6.411-1.494c0.633,0,1.237,0.093,1.81,0.279
	c0.546,0.177,0.991,0.489,1.335,0.936c0.337,0.428,0.6,1.07,0.789,1.926c0.196,0.856,0.347,1.894,0.455,3.113l0.232,2.513
	l0.678,6.491c0.27,2.652,0.553,4.709,0.849,6.17c-2.144,0.866-3.664,1.592-4.56,2.178c0-1.052-0.108-3.908-0.324-8.571
	c-1.261-0.111-2.117-0.167-2.568-0.167c-0.485,0.027-1.124,0.072-1.916,0.133s-1.532,0.118-2.22,0.174
	c-2.562,3.899-4.627,6.482-6.198,7.748c-1.584,1.275-3.071,1.912-4.459,1.912c-1.348,0-2.454-0.465-3.316-1.396
	c-0.87-0.922-1.304-1.885-1.304-2.89c0-1.136,0.455-2.401,1.365-3.797c0.896-1.378,2.086-2.592,3.569-3.644
	c1.477-1.033,3.232-1.55,5.269-1.55c0.485,0,0.949,0.019,1.39,0.056c0.441,0.038,0.94,0.098,1.497,0.182
	c0.556,0.083,1.121,0.181,1.694,0.293l2.032-4.062c0.398-0.801,1.193-2.629,2.386-5.486c-0.795,0.028-1.677,0.121-2.644,0.279
	C16.885,12.569,15.879,12.778,14.834,13.039z M6.34,25.323c-0.526,1.033-0.789,2.062-0.789,3.085c0,1.07,0.259,1.853,0.778,2.346
	s1.136,0.739,1.851,0.739c0.546,0,1.294-0.098,2.245-0.293c0.034-0.084,0.428-0.68,1.183-1.787c0.688-1.005,1.729-2.614,3.125-4.83
	C11.403,24.742,8.605,24.988,6.34,25.323z M17.888,22.029c0.519,0.083,1.25,0.244,2.194,0.481c0.944,0.238,1.968,0.515,3.074,0.831
	c-0.263-2.959-0.681-6.109-1.254-9.451C21.161,15.742,19.823,18.455,17.888,22.029z M30.406,16.752l-0.141-2.443
	c0.573-1.405,1.215-2.459,1.926-3.162c0.711-0.703,1.491-1.054,2.341-1.054c0.593,0,1.233,0.135,1.921,0.405
	c0.101,0.847,0.189,1.494,0.263,1.94l-0.566,2.694c-0.971-1.061-1.824-1.735-2.558-2.024c0,1.34-0.017,2.164-0.051,2.471
	c-0.027,0.205-0.057,0.521-0.091,0.949h1.466c0.559,0,1.122-0.018,1.688-0.056l-0.577,2.792c-0.101,0.019-0.219,0.033-0.354,0.042
	c-0.128,0.009-0.313,0.033-0.556,0.07c-0.391,0.075-0.91,0.121-1.557,0.14l0.03,2.988c0.041,2.987,0.098,5.3,0.172,6.938
	l-1.871,0.67c-0.856,0.298-1.375,0.503-1.558,0.614l-0.141-10.777l-1.365,0.182C29.435,18.678,29.961,17.552,30.406,16.752z
	 M40.002,16.263c2.002,0,3.451,0.386,4.348,1.159c0.883,0.773,1.324,1.959,1.324,3.56c0,0.735-0.04,1.684-0.121,2.848l-0.243,3.937
	c-0.041,1.182-0.098,2.033-0.172,2.555c-0.067,0.493-0.267,1.121-0.597,1.884c-0.317,0.745-0.742,1.476-1.274,2.192
	c-0.56,0.735-0.94,1.173-1.143,1.313c-0.243,0.157-0.61,0.237-1.103,0.237c-1.543,0-2.716-0.517-3.519-1.55l-0.172-2.89l1.598-2.095
	c0.539,1.275,1.658,2.039,3.357,2.29l-0.051-3.602c-0.034-2.131-0.061-3.337-0.081-3.616c-0.458,0.875-1.126,1.82-2.002,2.834
	c-0.357,0.429-0.586,0.764-0.688,1.005c-0.533-0.083-1.187-0.367-1.961-0.852c0,0.01-0.054-0.312-0.162-0.963
	c-0.188-1.052-0.283-2.015-0.283-2.89c0-1.079,0.125-1.945,0.374-2.597c0.236-0.632,0.64-1.424,1.213-2.373
	C39.362,17.506,39.813,16.71,40.002,16.263z M40.245,19.125v6.198c0.263-0.214,0.677-0.939,1.244-2.178
	c0.573-1.256,0.893-2.038,0.96-2.345C41.627,19.888,40.892,19.33,40.245,19.125z M47.323,11.35l3.417-1.48l-0.101,5.305v3.434
	l1.628-2.331h0.122c1.375,0.586,2.282,1.205,2.72,1.856c0.438,0.661,0.657,1.796,0.657,3.406c0,0.568-0.064,1.555-0.192,2.96
	c-0.074,0.744-0.135,1.801-0.182,3.169c-0.984,1.126-2.083,2.196-3.296,3.21c0.297-3.313,0.469-5.439,0.516-6.379l-0.374-3.309
	c-0.034-0.205-0.229-1.02-0.586-2.443c-0.465,0.847-0.802,1.419-1.011,1.717v3.532c0,0.047-0.007,0.377-0.02,0.991
	c-0.021,0.567-0.03,1.028-0.03,1.382c0,0.289,0.017,0.838,0.05,1.647c-0.721,0.037-1.928,0.228-3.62,0.572
	c0.102-1.135,0.172-2.629,0.212-4.481C47.266,22.248,47.296,17.994,47.323,11.35z M60.134,16.25c0.101,0.037,0.711,0.2,1.831,0.488
	c1.011,0.251,1.678,0.447,2.002,0.586c0.317,0.158,0.617,0.41,0.9,0.754s0.496,0.829,0.637,1.452
	c0.142,0.614,0.212,1.447,0.212,2.499l-0.051,4.104c0,0.484,0.034,1.052,0.101,1.703c-0.627,0.14-1.776,0.54-3.448,1.201
	c0.122-1.275,0.182-3.029,0.182-5.264c-0.115,0.261-0.448,0.81-1.001,1.647s-1.341,1.982-2.366,3.435
	c-0.789-0.289-1.396-0.568-1.82-0.838c-0.027-0.354-0.081-0.902-0.162-1.647c-0.115-1.163-0.172-2.215-0.172-3.154
	c0-1.359,0.206-2.504,0.617-3.435C57.994,18.86,58.84,17.683,60.134,16.25z M60.094,19.614l0.222,5.486
	c0.371-0.567,0.738-1.207,1.102-1.919c0.364-0.712,0.674-1.38,0.931-2.003C61.978,20.442,61.227,19.921,60.094,19.614z
	 M69.741,16.626l0.971-0.405v1.829c0.188-0.158,0.526-0.428,1.011-0.81c0.162-0.121,0.32-0.251,0.475-0.391l0.859-0.712
	c0.627,0.121,1.105,0.27,1.436,0.447c0.317,0.177,0.58,0.442,0.789,0.795c0.202,0.345,0.34,0.694,0.415,1.047
	c0.067,0.316,0.101,0.842,0.101,1.577c0,0.875-0.061,1.908-0.182,3.099c-0.128,1.266-0.199,2.354-0.212,3.267l-1.871,1.647
	l-0.283,0.266c-0.54,0.512-0.981,0.86-1.325,1.047c0.391-2.578,0.586-4.598,0.586-6.059c0-1.759-0.28-3.304-0.839-4.635
	c-0.02,0.037-0.142,0.205-0.364,0.502l-0.182,0.279l-0.415,0.572l0.05,8.027c-1.099,0.047-2.241,0.27-3.428,0.67
	c0-0.483,0.003-0.805,0.01-0.963c0.013-0.577,0.02-0.922,0.02-1.033V26.37c-0.02-0.391-0.03-0.665-0.03-0.823v-3.295
	c0-1.666-0.02-3.159-0.061-4.481c0.087-0.037,0.188-0.082,0.303-0.133c0.115-0.051,0.244-0.109,0.389-0.174
	c0.145-0.065,0.298-0.14,0.46-0.223L69.741,16.626z"/>
<path fill="#000000" stroke="#000000" stroke-miterlimit="10" d="M161.456,18.4l1.85-3.993c1.896-1.787,3.84-3.043,5.833-3.769
	c2-0.716,3.723-1.075,5.167-1.075c1.15,0,2.26,0.307,3.327,0.921c1.083,0.624,1.888,1.41,2.415,2.359
	c0.526,0.959,0.789,1.833,0.789,2.625c0,0.894-0.289,1.964-0.868,3.211c-0.595,1.266-1.794,2.503-3.599,3.713
	c-1.828,1.238-4.1,2.113-6.814,2.625c2.279,1.675,4.043,3.48,5.291,5.416c-0.15,0.651-0.673,2.434-1.568,5.347
	c-0.563-0.643-1.166-1.306-1.805-1.989c-0.64-0.685-1.298-1.373-1.975-2.066s-1.835-1.863-3.475-3.511
	c-1.813,3.183-3.241,4.774-4.287,4.774c-0.586,0-1.229-0.47-1.929-1.41c-0.195-0.27-0.439-0.535-0.733-0.796
	c0.158-0.409,0.421-1.023,0.79-1.843c0.293-0.66,0.526-1.214,0.699-1.661l3.08,1.969c0.609-0.875,1.395-2.122,2.357-3.741
	c0.872-1.471,1.816-3.173,2.832-5.109l3.113-6.002l-0.846-0.028c-0.715,0-1.455,0.088-2.223,0.265s-1.568,0.433-2.403,0.768
	C164.784,16.088,163.11,17.088,161.456,18.4z M174.542,14.966c-1.271,1.601-3.182,4.453-5.73,8.557
	c2.414-0.325,4.982-2.359,7.705-6.1C176.141,16.362,175.482,15.543,174.542,14.966z M181.243,18.875l2.538-2.667l3.035,0.279
	c0.978,0.103,1.669,0.405,2.075,0.907c0.421,0.521,0.632,1.089,0.632,1.703c0,0.27-0.03,0.619-0.09,1.047
	c-0.083,0.502-0.17,1.251-0.26,2.247c-1.03,0.661-1.813,1.047-2.347,1.159c-0.541,0.111-1.061,0.167-1.557,0.167
	c-0.188,0-0.421-0.022-0.699-0.069c0.736,1.136,1.455,1.703,2.154,1.703c0.827,0,1.572-0.387,2.233-1.159h0.091
	c-0.752,2.904-2.144,4.355-4.174,4.355c-1.054,0-1.816-0.182-2.29-0.544c-0.475-0.363-0.835-0.889-1.083-1.578
	c-0.256-0.67-0.384-1.94-0.384-3.811l0.057-2.387L181.243,18.875z M184.65,19.015l-0.294,3.406c0.654,0,1.357-0.028,2.109-0.084
	c0.016-0.614,0.023-0.907,0.023-0.879c0-0.791-0.17-1.387-0.508-1.787C185.635,19.261,185.191,19.042,184.65,19.015z
	 M193.607,16.069c1.52,0.046,2.606,0.167,3.261,0.363c0.699,0.214,1.278,0.666,1.737,1.354c0.458,0.708,0.688,1.601,0.688,2.68
	c-1.173,0.242-2.282,0.61-3.328,1.103c-0.173-1.033-0.624-1.666-1.354-1.898c-0.135,1.684-0.203,2.843-0.203,3.476
	c0,0.466,0.109,0.847,0.327,1.145s0.564,0.55,1.038,0.754c0.489,0.224,0.933,0.335,1.331,0.335c0.632,0,1.229-0.456,1.794-1.368
	l0.045,0.057c-0.437,1.517-0.978,2.624-1.624,3.322c-0.64,0.697-1.595,1.047-2.866,1.047c-0.947,0-1.711-0.237-2.29-0.712
	c-0.571-0.475-0.955-1.057-1.15-1.745c-0.203-0.688-0.305-1.601-0.305-2.736c0-1.172,0.038-2.629,0.113-4.369
	C191.693,17.87,192.622,16.935,193.607,16.069z M200.026,20.173l0.305-1.745c1.512-0.307,3.245-1.033,5.2-2.178v2.457l-0.033,1.047
	c0,0.14,0.004,0.265,0.011,0.377c0.008,0.307,0.012,0.73,0.012,1.271c0,0.242,0.004,0.438,0.011,0.586l0.079,2.458
	c0.016,0.53,0.071,1.722,0.17,3.573c-1.55,0.335-2.896,0.586-4.039,0.754c0.105-1.173,0.158-2.918,0.158-5.235l-0.046-3.503
	c-0.315,0.158-0.654,0.237-1.015,0.237C200.568,20.271,200.297,20.238,200.026,20.173z M203.365,9.885
	c0.564,0,1.054,0.242,1.467,0.726c0.406,0.484,0.609,1.098,0.609,1.843c0,0.698-0.203,1.298-0.609,1.801
	c-0.413,0.502-0.902,0.754-1.467,0.754c-0.563,0-1.049-0.251-1.455-0.754c-0.406-0.493-0.609-1.093-0.609-1.801
	c0-0.707,0.203-1.313,0.609-1.815C202.309,10.136,202.794,9.885,203.365,9.885z M207.146,17.242
	c1.136-0.232,1.975-0.412,2.516-0.538c0.542-0.125,1.05-0.267,1.523-0.426c0.12,0.987,0.199,1.801,0.236,2.443
	c0.624-0.475,1.16-0.93,1.608-1.368c0.447-0.438,0.817-0.866,1.11-1.284c1.023,0.344,1.851,0.851,2.482,1.521
	c0.616,0.67,0.925,1.792,0.925,3.364c0,2.792-1.061,5.244-3.182,7.356l-1.488-0.823l-0.835-0.433
	c-0.677,3.518-1.151,6.318-1.422,8.403l-3.125-0.349c0.038-0.438,0.105-1.375,0.203-2.813c0.098-1.438,0.165-2.71,0.203-3.817
	s0.057-2.02,0.057-2.736C207.958,21.732,207.688,18.898,207.146,17.242z M211.421,20.788c0.075,0.567,0.113,1.107,0.113,1.619
	l-0.012,1.759c0.534,0.261,1.233,0.525,2.099,0.795c0.061-0.502,0.09-0.986,0.09-1.451c0-2.187-0.301-3.639-0.902-4.355
	C212.35,19.75,211.888,20.294,211.421,20.788z M219.024,18.875l2.538-2.667l3.035,0.279c0.978,0.103,1.669,0.405,2.075,0.907
	c0.421,0.521,0.632,1.089,0.632,1.703c0,0.27-0.03,0.619-0.09,1.047c-0.083,0.502-0.17,1.251-0.26,2.247
	c-1.03,0.661-1.813,1.047-2.347,1.159c-0.541,0.111-1.061,0.167-1.557,0.167c-0.188,0-0.421-0.022-0.699-0.069
	c0.736,1.136,1.455,1.703,2.154,1.703c0.827,0,1.572-0.387,2.233-1.159h0.091c-0.752,2.904-2.144,4.355-4.174,4.355
	c-1.054,0-1.816-0.182-2.29-0.544c-0.475-0.363-0.835-0.889-1.083-1.578c-0.256-0.67-0.384-1.94-0.384-3.811l0.057-2.387
	L219.024,18.875z M222.432,19.015l-0.294,3.406c0.654,0,1.357-0.028,2.109-0.084c0.016-0.614,0.023-0.907,0.023-0.879
	c0-0.791-0.17-1.387-0.508-1.787C223.416,19.261,222.973,19.042,222.432,19.015z M231.772,16.167c0.045,0,0.691,0.056,1.94,0.167
	c1.338,0.103,2.644,0.153,3.914,0.153c-0.007,0.038-0.09,0.386-0.248,1.047c-0.263,1.08-0.398,1.88-0.406,2.401
	c-0.88-0.428-2.591-0.777-5.133-1.047c0.361,1.321,1.542,1.982,3.542,1.982c1.054,0,1.775,0.056,2.166,0.167
	c0.376,0.112,0.674,0.345,0.892,0.698c0.211,0.344,0.316,0.842,0.316,1.494c0,0.698-0.121,1.382-0.361,2.052
	c-0.256,0.67-0.553,1.21-0.892,1.619c-0.346,0.419-0.955,0.796-1.827,1.131c-0.865,0.335-1.775,0.503-2.73,0.503
	c-1.654,0-3.034-0.419-4.14-1.257c0.135-0.558,0.342-1.242,0.62-2.052c1.173,0.633,2.501,0.949,3.982,0.949
	c0.782,0,1.504-0.27,2.166-0.81c-0.459-0.4-0.959-0.601-1.501-0.601c-0.112,0-0.248,0.005-0.405,0.015
	c-0.377,0.019-0.591,0.027-0.644,0.027c-1.481,0-2.609-0.274-3.385-0.823c-0.774-0.54-1.161-1.48-1.161-2.82
	c0-1.061,0.232-1.95,0.699-2.667C229.636,17.791,230.501,17.014,231.772,16.167z"/>
<path fill="#CC0000" stroke="#CC0000" stroke-miterlimit="10" d="M93.626,28.032l-4.879,0.88c0.767-3.499,1.151-6.389,1.151-8.669
	c0-1.657-0.388-3.202-1.165-4.635c-0.767-1.424-1.871-2.298-3.313-2.625c-1.672,2.215-2.509,5.035-2.509,8.459
	c0,0.205,0.042,0.335,0.125,0.391c0.074,0.065,0.351,0.14,0.832,0.223c0.471,0.084,1.09,0.14,1.857,0.167
	c-1.358,1.424-2.25,2.29-2.675,2.597l-0.61,0.014c-1.441,0-2.162-0.74-2.162-2.22c0-1.182,0.258-2.513,0.776-3.993
	c0.527-1.479,1.285-3.048,2.273-4.704c0.998-1.694,2.204-3.132,3.618-4.313c0.739,0.083,1.437,0.235,2.093,0.454
	c0.656,0.219,1.277,0.507,1.864,0.865c0.586,0.358,1.12,0.766,1.601,1.222c1.488,1.442,2.319,3.336,2.495,5.682
	c1.035-1.628,2.026-2.974,2.973-4.035c0.947-1.061,1.864-1.856,2.751-2.387c0.896-0.549,1.841-0.979,2.834-1.292
	c0.993-0.312,2.035-0.505,3.126-0.579c0.406,0.958,0.76,2.012,1.06,3.162s0.534,2.352,0.7,3.609
	c0.979-1.229,2.412-2.327,4.297-3.295c1.876-0.968,3.756-1.638,5.642-2.01c1.737,3.769,2.606,7.245,2.606,10.428
	c0,1.685-0.223,3.322-0.666,4.914c-0.435,1.563-1.04,3.364-1.816,5.402c-3.548,2.429-6.847,3.644-9.896,3.644
	c-1.802,0-3.863-0.545-6.182-1.634l-0.375-2.345c1.857,0.726,3.909,1.089,6.154,1.089c2.938,0,5.988-0.559,9.148-1.676
	c-0.167-5.295-1.183-10.851-3.049-16.667c-1.747,0.94-3.207,2.559-4.38,4.858c-1.192,2.299-1.89,5.31-2.093,9.032
	c-0.73,0.056-2.477,0.335-5.24,0.837c0.231-2.559,0.347-4.992,0.347-7.301c0-3.285-0.333-6.245-0.998-8.878
	C98.634,15.45,95.862,20.56,93.626,28.032z M122.845,18.875l3.119-2.667l3.729,0.279c1.201,0.103,2.051,0.405,2.55,0.907
	c0.518,0.521,0.776,1.089,0.776,1.703c0,0.27-0.037,0.619-0.11,1.047c-0.103,0.502-0.208,1.251-0.319,2.247
	c-1.266,0.661-2.227,1.047-2.883,1.159c-0.665,0.111-1.303,0.167-1.913,0.167c-0.23,0-0.518-0.022-0.859-0.069
	c0.905,1.136,1.788,1.703,2.647,1.703c1.017,0,1.932-0.387,2.745-1.159h0.11c-0.924,2.904-2.634,4.355-5.129,4.355
	c-1.293,0-2.231-0.182-2.813-0.544c-0.582-0.363-1.025-0.889-1.33-1.578c-0.314-0.67-0.472-1.94-0.472-3.811l0.069-2.387
	L122.845,18.875z M127.031,19.015l-0.36,3.406c0.804,0,1.667-0.028,2.592-0.084c0.019-0.614,0.027-0.907,0.027-0.879
	c0-0.791-0.208-1.387-0.624-1.787C128.241,19.261,127.696,19.042,127.031,19.015z M138.591,16.25c0.139,0.038,0.975,0.2,2.509,0.489
	c1.386,0.251,2.301,0.447,2.744,0.586c0.435,0.158,0.846,0.409,1.234,0.753c0.388,0.345,0.679,0.829,0.873,1.452
	c0.193,0.614,0.291,1.447,0.291,2.499l-0.069,4.104c0,0.484,0.046,1.052,0.139,1.703c-0.859,0.14-2.436,0.54-4.727,1.201
	c0.166-1.275,0.249-3.029,0.249-5.264c-0.157,0.261-0.614,0.811-1.372,1.647c-0.758,0.838-1.839,1.982-3.243,3.435
	c-1.081-0.289-1.913-0.568-2.495-0.838c-0.037-0.354-0.111-0.902-0.222-1.647c-0.157-1.163-0.236-2.215-0.236-3.154
	c0-1.359,0.282-2.504,0.846-3.435C135.656,18.861,136.816,17.684,138.591,16.25z M138.535,19.615l0.305,5.486
	c0.509-0.567,1.013-1.207,1.511-1.919c0.499-0.712,0.925-1.38,1.275-2.003C141.118,20.443,140.088,19.922,138.535,19.615z
	 M149.251,11.267l2.717-0.698l2.051-0.558l-0.582,10.302l-0.208,4.048c0.684,0.493,1.455,0.991,2.315,1.493v0.098
	c-1.101,1.033-2.024,2.053-2.772,3.058c-1.275-0.271-2.228-0.826-2.855-1.668c-0.629-0.843-0.942-1.976-0.942-3.399
	c0-0.567,0.027-1.499,0.083-2.792C149.112,19.903,149.177,16.609,149.251,11.267z"/>
</g>
<defs>
<filter id="filter0_d" x="0.0440063" y="4.30399" width="239.336" height="39.032" filterUnits="userSpaceOnUse" color-interpolation-filters="sRGB">
<feFlood flood-opacity="0" result="BackgroundImageFix"/>
<feColorMatrix in="SourceAlpha" type="matrix" values="0 0 0 0 0 0 0 0 0 0 0 0 0 0 0 0 0 0 127 0"/>
<feOffset dy="4"/>
<feGaussianBlur stdDeviation="2"/>
<feColorMatrix type="matrix" values="0 0 0 0 0 0 0 0 0 0 0 0 0 0 0 0 0 0 0.25 0"/>
<feBlend mode="normal" in2="BackgroundImageFix" result="effect1_dropShadow"/>
<feBlend mode="normal" in="SourceGraphic" in2="effect1_dropShadow" result="shape"/>
</filter>
</defs>
</svg>
